<svg id="Csv--Streamline-Carbon" xmlns="http://www.w3.org/2000/svg" viewBox="0 0 16 16" height="16" width="16">
  <defs></defs>
  <title>CSV</title>
  <path d="m14 4.5 -1 6.5 -1 -6.5 -1 0 1.258 7 1.484 0L15 4.5l-1 0z" fill="#000000" stroke-width="0.5"></path>
  <path d="M9 11.5h-3v-1h3v-2h-2a1.001 1.001 0 0 1 -1 -1v-2a1.001 1.001 0 0 1 1 -1h3v1h-3v2h2a1.001 1.001 0 0 1 1 1v2a1.001 1.001 0 0 1 -1 1Z" fill="#000000" stroke-width="0.5"></path>
  <path d="M5 11.5H2a1.00115 1.00115 0 0 1 -1 -1V5.5a1.001 1.001 0 0 1 1 -1h3v1H2v5h3Z" fill="#000000" stroke-width="0.5"></path>
  <path id="_Transparent_Rectangle_" d="M0 0h16v16H0Z" fill="none" stroke-width="0.5"></path>
</svg>