<svg xmlns="http://www.w3.org/2000/svg" fill="none" viewBox="0 0 24 24" id="Google-Analytics--Streamline-Svg-Logos" height="24" width="24">
  <desc>
    Google Analytics Streamline Icon: https://streamlinehq.com
  </desc>
  <path fill="#f9ab00" d="M22.614175 20.80935c0.00435 0.8373 -0.3508 1.636225 -0.97535 2.193925 -0.624525 0.5577 -1.4584 0.820525 -2.28985 0.72175 -1.496225 -0.221375 -2.592675 -1.523425 -2.556225 -3.0355V3.305325c-0.036125 -1.5137225 1.063 -2.8163875 2.5612 -3.0355075 0.830675 -0.09722425 1.66315 0.1663075 2.28655 0.7238275 0.623375 0.55752 0.977875 1.3555325 0.973675 2.191855v17.62385Z" stroke-width="0.25"></path>
  <path fill="#e37400" d="M4.296425 17.928625c1.607525 0 2.910675 1.303175 2.910675 2.9107C7.2071 22.44685 5.90395 23.75 4.296425 23.75c-1.607525 0 -2.9106825 -1.30315 -2.9106825 -2.910675 0 -1.607525 1.3031575 -2.9107 2.9106825 -2.9107Zm7.65865 -8.8219c-1.61515 0.088525 -2.868275 1.443325 -2.8308 3.06045v7.8184c0 2.12185 0.9336 3.40995 2.301575 3.68455 0.8588 0.17405 1.75035 -0.047375 2.427925 -0.602975 0.677575 -0.555625 1.06935 -1.386525 1.0669 -2.262775v-8.772c0.001425 -0.783325 -0.31185 -1.5344 -0.8695 -2.084525 -0.557625 -0.550125 -1.312875 -0.853175 -2.0961 -0.841125Z" stroke-width="0.25"></path>
</svg>