<svg width="600" height="300" viewBox="0 0 600 300" fill="none" xmlns="http://www.w3.org/2000/svg">
<path fill-rule="evenodd" clip-rule="evenodd" d="M381.847 172.131C379.013 172.131 376.315 171.098 374.326 169.1C372.343 167.107 371.003 164.092 371.003 160.016C371.003 155.89 372.344 152.877 374.324 150.898C376.31 148.913 379.008 147.9 381.847 147.9C384.685 147.9 387.383 148.913 389.369 150.898C391.349 152.877 392.69 155.89 392.69 160.016C392.69 164.141 391.349 167.154 389.369 169.133C387.383 171.118 384.685 172.131 381.847 172.131ZM381.847 134.73C367.458 134.73 356.561 145.316 356.561 160.016C356.561 174.62 367.456 185.301 381.847 185.301C396.237 185.301 407.132 174.62 407.132 160.016C407.132 145.316 396.235 134.73 381.847 134.73Z" fill="#0A1551"/>
<path fill-rule="evenodd" clip-rule="evenodd" d="M262.201 172.131C259.368 172.131 256.67 171.098 254.681 169.1C252.698 167.107 251.358 164.092 251.358 160.016C251.358 155.89 252.699 152.877 254.679 150.898C256.665 148.913 259.363 147.9 262.201 147.9C265.04 147.9 267.738 148.913 269.724 150.898C271.704 152.877 273.045 155.89 273.045 160.016C273.045 164.141 271.704 167.154 269.724 169.133C267.738 171.118 265.04 172.131 262.201 172.131ZM262.201 134.73C247.813 134.73 236.916 145.316 236.916 160.016C236.916 174.62 247.811 185.301 262.201 185.301C276.592 185.301 287.487 174.62 287.487 160.016C287.487 145.316 276.59 134.73 262.201 134.73Z" fill="#0A1551"/>
<path fill-rule="evenodd" clip-rule="evenodd" d="M446.457 185.302H460.813V156.639C460.813 154.284 461.55 152.231 462.851 150.779C464.14 149.339 466.04 148.426 468.513 148.426C471.105 148.426 472.867 149.285 473.997 150.609C475.146 151.957 475.744 153.908 475.744 156.262V185.302H490.006V156.639C490.006 154.334 490.742 152.277 492.037 150.809C493.32 149.354 495.198 148.426 497.612 148.426C500.256 148.426 502.013 149.287 503.128 150.606C504.265 151.95 504.843 153.9 504.843 156.262V185.302H518.824V153.715C518.824 147.273 516.703 142.597 513.37 139.538C510.052 136.494 505.631 135.142 501.179 135.142C498.023 135.142 495.125 135.679 492.522 136.987C490.307 138.099 488.347 139.75 486.637 142.03C483.867 137.525 478.81 135.142 472.831 135.142C468.472 135.142 463.428 136.871 460.25 140.232V136.463H446.457V185.302Z" fill="#0A1551"/>
<path fill-rule="evenodd" clip-rule="evenodd" d="M441.054 136.345V150.975L439.933 150.749C438.596 150.479 437.442 150.39 436.375 150.39C433.331 150.39 430.626 151.135 428.685 152.945C426.756 154.743 425.426 157.736 425.426 162.566V185.302H411.109V136.444H425.052V141.017C428.5 136.872 433.855 136.066 437.217 136.066C438.294 136.066 439.269 136.165 440.195 136.258L441.054 136.345Z" fill="#0A1551"/>
<path fill-rule="evenodd" clip-rule="evenodd" d="M183.391 161.221L197.315 161.221L197.473 161.375C197.579 161.479 197.653 161.626 197.667 161.791C197.937 164.834 199.135 167.129 200.928 168.658C202.712 170.18 205.02 170.888 207.426 170.888C210.361 170.888 212.762 169.809 214.42 167.933C216.069 166.068 216.928 163.481 216.928 160.549V119.929H231.982V160.969C231.982 174.108 221.911 185.095 207.531 185.095C200.348 185.095 194.324 182.713 190.1 178.579C185.973 174.54 183.509 168.776 183.4 161.772L183.391 161.221Z" fill="#0A1551"/>
<path fill-rule="evenodd" clip-rule="evenodd" d="M354.523 126.653L355.318 126.88V115.799L354.952 115.633C354.392 115.379 353.491 115.148 352.451 114.981C351.398 114.811 350.155 114.698 348.888 114.698C343.953 114.698 338.405 116.331 335.532 119.273C332.661 122.213 331.077 126.404 331.077 131.419V133.705H323.864V146.228H331.077V185.295H345.554V146.228H355.318V133.705H345.554V131.595C345.554 129.341 346.342 128.044 347.35 127.289C348.389 126.509 349.754 126.237 351 126.237C352.872 126.237 353.958 126.492 354.523 126.653Z" fill="#0A1551"/>
<path fill-rule="evenodd" clip-rule="evenodd" d="M318.685 173.3L319.432 173.072V184.196L319.088 184.363C318.562 184.619 317.716 184.85 316.738 185.019C315.748 185.189 314.58 185.303 313.39 185.303C308.752 185.303 303.566 183.663 300.866 180.709C298.168 177.757 296.68 173.55 296.68 168.516V146.42H289.901V133.862L296.68 133.862V120.286H310.256V133.862L319.432 133.862V146.42L310.256 146.42V168.339C310.256 170.601 310.997 171.903 311.944 172.662C312.92 173.444 314.203 173.718 315.374 173.718C317.134 173.718 318.154 173.462 318.685 173.3Z" fill="#0A1551"/>
<path d="M102.762 187.095C104.398 188.664 103.242 191.352 100.918 191.352H86.3786C83.51 191.352 81.1758 189.114 81.1758 186.363V172.42C81.1758 170.192 83.979 169.084 85.6151 170.652L102.762 187.095Z" fill="#0A1551"/>
<path d="M125.489 188.307C121.186 184.077 121.186 177.22 125.489 172.99L141.022 157.726C145.325 153.496 152.303 153.496 156.607 157.726C160.911 161.955 160.911 168.813 156.607 173.042L141.075 188.307C136.771 192.536 129.793 192.536 125.489 188.307Z" fill="#FFB21D"/>
<path d="M84.4534 149.951C80.1496 145.722 80.1496 138.864 84.4534 134.635L107.797 111.694C112.101 107.464 119.079 107.464 123.383 111.694C127.686 115.923 127.686 122.781 123.383 127.01L100.039 149.951C95.735 154.181 88.7572 154.181 84.4534 149.951Z" fill="#0099FF"/>
<path d="M105.824 168.273C101.52 164.043 101.52 157.186 105.824 152.956L141.143 118.247C145.447 114.017 152.425 114.017 156.729 118.247C161.032 122.476 161.032 129.334 156.729 133.563L121.41 168.273C117.106 172.503 110.128 172.503 105.824 168.273Z" fill="#FF6100"/>
</svg>
