<?xml version="1.0" encoding="UTF-8" standalone="no"?><!DOCTYPE svg PUBLIC "-//W3C//DTD SVG 1.1//EN" "http://www.w3.org/Graphics/SVG/1.1/DTD/svg11.dtd"><svg width="100%" height="100%" viewBox="0 0 100 24" version="1.1" xmlns="http://www.w3.org/2000/svg" xmlns:xlink="http://www.w3.org/1999/xlink" xml:space="preserve" xmlns:serif="http://www.serif.com/" style="fill-rule:evenodd;clip-rule:evenodd;stroke-linejoin:round;stroke-miterlimit:2;"><path id="black" d="M43.722,15.526l-6.323,-13.876c-0.069,-0.152 -0.105,-0.317 -0.105,-0.484c-0,-0.64 0.526,-1.166 1.166,-1.166l2.748,0c0.456,0 0.873,0.268 1.062,0.683l4.108,9.017l4.109,-9.017c0.189,-0.415 0.605,-0.683 1.061,-0.683l2.751,0c0.64,0 1.166,0.526 1.166,1.166c0,0.167 -0.036,0.332 -0.105,0.484l-9.484,20.805c-0.243,0.534 -0.778,0.878 -1.365,0.878l-2.533,0c-0.64,-0 -1.167,-0.527 -1.167,-1.167c0,-0.167 0.036,-0.331 0.105,-0.483l2.806,-6.157Zm-33.89,-14.785c-0,-0 -0,-0.001 -0,-0.001c-0,-0.365 0.301,-0.666 0.666,-0.666c0.027,0 0.055,0.002 0.082,0.005c4.611,0.622 8.088,4.6 8.088,9.252c0,5.122 -4.214,9.336 -9.336,9.336c-1.573,0 -3.121,-0.397 -4.5,-1.156l0,4.656c0,0.001 0,0.001 0,0.002c0,0.639 -0.525,1.164 -1.164,1.164c-0.001,0 -0.001,0 -0.002,0l-2.501,0c-0.64,0 -1.166,-0.526 -1.166,-1.166l0,-13.588c0,-0.183 0.151,-0.333 0.334,-0.333c0.073,-0 0.143,0.023 0.201,0.067l6.191,4.687c0.761,0.541 1.673,0.832 2.607,0.832c2.468,-0 4.5,-2.031 4.5,-4.5c-0,-2.084 -1.447,-3.908 -3.476,-4.382c-0.303,-0.067 -0.521,-0.339 -0.518,-0.65l-0.006,-3.559Zm23.667,16.77c-1.379,0.759 -2.927,1.157 -4.501,1.157c-5.12,0 -9.334,-4.214 -9.334,-9.334c0,-5.12 4.214,-9.334 9.334,-9.334c5.12,0 9.333,4.213 9.334,9.333l0,8.167c0,0.64 -0.526,1.167 -1.166,1.167l-2.5,0c-0.636,0 -1.161,-0.52 -1.167,-1.156Zm57.167,-17.511c5.12,0 9.334,4.214 9.334,9.334c0,5.121 -4.214,9.334 -9.334,9.334c-5.12,0 -9.334,-4.213 -9.334,-9.334c0,-0 0,-0.001 0,-0.001c0.002,-5.119 4.215,-9.331 9.334,-9.333Zm-20.667,17.5c-0.001,0.64 -0.527,1.167 -1.167,1.167l-2.5,0c-0.64,0 -1.166,-0.526 -1.166,-1.166c-0,-0 -0,-0.001 0,-0.001l0,-10c0,-1.463 -1.204,-2.667 -2.667,-2.667c-1.463,0 -2.667,1.204 -2.667,2.667l0,10c0,0 0,0.001 0,0.001c0,0.64 -0.526,1.166 -1.166,1.166l-2.5,0c-0.64,-0 -1.166,-0.527 -1.167,-1.167l0,-10c0.001,-4.114 3.386,-7.498 7.5,-7.498c1.883,-0 3.698,0.709 5.083,1.985c1.385,-1.277 3.201,-1.986 5.084,-1.986c4.114,-0 7.5,3.385 7.5,7.499l0,10c-0.001,0.64 -0.527,1.167 -1.167,1.167l-2.5,0c-0.64,-0 -1.166,-0.527 -1.167,-1.167l0.001,-10.052c-0,-1.463 -1.204,-2.667 -2.667,-2.667c-1.464,0 -2.667,1.204 -2.667,2.667l0,10.052Zm20.667,-12.667c2.469,0 4.5,2.031 4.5,4.5c0,2.469 -2.031,4.5 -4.5,4.5c-2.469,0 -4.5,-2.031 -4.5,-4.5c0,-2.469 2.031,-4.5 4.5,-4.5Zm-61.667,0c2.469,0 4.5,2.031 4.5,4.5c0,2.469 -2.031,4.5 -4.5,4.5c-2.469,0 -4.5,-2.031 -4.5,-4.5c0,-2.469 2.031,-4.5 4.5,-4.5Z" style="fill:#131924;"/><path id="green" d="M2.13,3.03c0.113,0.082 0.249,0.126 0.389,0.126c0.219,0 0.424,-0.108 0.548,-0.289c1.242,-1.557 3.035,-2.58 5.007,-2.858c0.03,-0.004 0.061,-0.006 0.092,-0.006c0.364,-0 0.664,0.299 0.664,0.664l0,3.638c-0,0.311 -0.218,0.583 -0.522,0.651c-2.028,0.472 -3.476,2.295 -3.476,4.377c0,0 0,0.001 0,0.001c0,0.27 -0.222,0.492 -0.492,0.492c-0.107,-0 -0.212,-0.035 -0.297,-0.1l-3.777,-2.845c-0.168,-0.125 -0.267,-0.323 -0.267,-0.532l0,-4.2c-0,-0 -0,-0.001 -0,-0.001c-0,-0.183 0.15,-0.333 0.333,-0.333c0.07,0 0.138,0.022 0.195,0.063l1.6,1.151l0.003,0.001Z" style="fill:#25c644;"/></svg>